<svg xmlns="http://www.w3.org/2000/svg" width="22.002" height="22" fill="none"><path fill-rule="evenodd" fill="url(#linear_0)" d="M20.422 6.79l1.58-1.06-.52 8.8-7-3.84 1.62-1.06c-.8-1.49-3.12-5.29-6.38-6.17-3.09-.83-8.37 1.18-8.37 1.18S4.782 0 10.632 0c5.23 0 8.56 4.26 9.79 6.79zM12.29 18.546c3.09.82 8.37-1.19 8.37-1.19s-3.43 4.64-9.28 4.64c-5.23 0-8.56-4.24-9.79-6.78L0 16.256l.52-8.8 7.01 3.85-1.62 1.07c.8 1.48 3.12 5.28 6.38 6.17z"/><defs><linearGradient id="linear_0" x1="50%" y1="4.266%" x2="51%" y2="100%" gradientUnits="objectBoundingBox"><stop offset="0" stop-color="#3DBEFD"/><stop offset="1" stop-color="#007FBD"/></linearGradient></defs></svg>