<svg width="16" height="36" xmlns="http://www.w3.org/2000/svg"><g fill="none" fill-rule="evenodd"><path d="M7.513.118a1.07 1.07 0 01.974 0c2.89 1.467 6.442 1.542 6.476 1.542.572.008 1.037.465 1.037 1.017v7.017c0 5.38-5.101 7.774-7.798 8.286A1.18 1.18 0 018 18a1.18 1.18 0 01-.202-.02C5.1 17.468 0 15.074 0 9.694V2.677c0-.552.463-1.009 1.033-1.017.038 0 3.59-.075 6.48-1.542zM8 2.148C5.773 3.167 3.424 3.514 2.098 3.63v6.064c0 4.525 4.803 5.975 5.905 6.249 1.101-.265 5.9-1.688 5.9-6.249V3.63C12.575 3.514 10.224 3.167 8 2.148zm3.633 3.758c.28.005.54.118.733.315a.995.995 0 01-.04 1.435l-4.534 4.158c-.196.18-.453.279-.722.279-.232 0-.45-.07-.633-.207L3.76 9.924a1.003 1.003 0 01-.405-.672.984.984 0 01.204-.75 1.05 1.05 0 01.697-.394c.28-.03.551.035.773.198l1.966 1.442 3.89-3.566c.203-.186.45-.275.748-.276z" fill="#31DB52"/><path d="M7.513 18.118a1.07 1.07 0 01.974 0c2.89 1.467 6.442 1.542 6.476 1.542.572.008 1.037.465 1.037 1.017v7.017c0 5.38-5.101 7.774-7.798 8.286A1.18 1.18 0 018 36a1.18 1.18 0 01-.202-.02C5.1 35.468 0 33.074 0 27.694v-7.017c0-.552.463-1.009 1.033-1.017.038 0 3.59-.075 6.48-1.542zM8 20.148c-2.227 1.019-4.576 1.366-5.902 1.482v6.064c0 4.525 4.803 5.975 5.905 6.249 1.101-.265 5.9-1.688 5.9-6.249V21.63c-1.327-.116-3.678-.463-5.903-1.482zm2.666 4.186a1.14 1.14 0 01.089 1.512l-.089.099L9.611 27l1.055 1.055a1.14 1.14 0 01-1.504 1.706l-.107-.095L8 28.611l-1.055 1.055-.107.095a1.14 1.14 0 01-1.593-1.607l.089-.099L6.389 27l-1.055-1.055a1.14 1.14 0 011.504-1.706l.107.095L8 25.389l1.055-1.055.107-.095a1.14 1.14 0 011.504.095z" fill="#F51131"/></g></svg>