<svg width="19" height="19" xmlns="http://www.w3.org/2000/svg"><defs><linearGradient x1="50%" y1="100%" x2="50%" y2="0%" id="a"><stop stop-color="#FFF" offset="0%"/><stop stop-color="#FFF" offset="100%"/></linearGradient></defs><g fill="none" fill-rule="evenodd"><path d="M17.966 9.5A8.467 8.467 0 019.5 17.966a8.467 8.467 0 110-16.934A8.467 8.467 0 0117.966 9.5" fill="#182643"/><path d="M9.5 0a9.5 9.5 0 110 19.001A9.5 9.5 0 019.5 0zm0 1.705a7.796 7.796 0 10.001 15.59 7.796 7.796 0 00-.002-15.59zm0 1.084c3.7 0 6.71 3.01 6.71 6.711 0 3.7-3.01 6.71-6.71 6.71S2.79 13.2 2.79 9.5 5.8 2.79 9.5 2.79zm.63 8.307a1.713 1.713 0 01-.63.124c-.223 0-.435-.047-.631-.124l-2.32 3.737c.875.488 1.88.765 2.95.765a6.04 6.04 0 002.952-.765zm5.454-1.291h-4.396a1.707 1.707 0 01-.54.965l2.321 3.74a6.094 6.094 0 002.615-4.705zm-7.773 0H3.416A6.094 6.094 0 006.03 14.51l2.322-3.74a1.713 1.713 0 01-.54-.965zM9.5 8.39A1.11 1.11 0 008.39 9.5c0 .61.498 1.109 1.11 1.109.61 0 1.109-.5 1.109-1.11 0-.611-.499-1.11-1.11-1.11zM6.03 4.489a6.092 6.092 0 00-2.614 4.705H7.81c.07-.38.265-.716.54-.965zm6.94 0l-2.322 3.74c.275.25.472.584.54.965h4.396a6.092 6.092 0 00-2.615-4.705zM9.5 3.399c-1.071 0-2.076.28-2.952.767l2.32 3.738a1.73 1.73 0 01.632-.123c.223 0 .435.046.63.123l2.321-3.738A6.057 6.057 0 009.5 3.4z" fill="url(#a)"/></g></svg>