<svg width="110" height="28" xmlns="http://www.w3.org/2000/svg"><g fill="none" fill-rule="evenodd"><path d="M1 23.844L0 27.71h.583l1-3.866H.999zm4.076 2.714l-.55-3.004-1.888 4.156h.604l1.019-2.336.462 2.513 1.793-2.51-.23 2.333h.598l.344-4.156-2.152 3.004zm6.191 0l-.55-3.004-1.888 4.156h.603l1.02-2.336.461 2.513 1.794-2.51-.23 2.333h.598l.343-4.156-2.151 3.004zm6.878-2.166h-1.55l-.24.93h1.505l-.142.547h-1.504l-.334 1.292h1.55l-.142.548h-2.133l.999-3.865h2.133l-.142.548zm1.895 2.77h.263c.262 0 .487-.028.675-.083.188-.059.37-.151.542-.278.355-.262.587-.604.696-1.024.11-.424.056-.768-.16-1.032-.194-.235-.54-.353-1.037-.353h-.263l-.716 2.77zm-.725.548l1-3.866h.81c.39 0 .687.038.892.115.223.075.41.203.56.383.304.364.38.842.227 1.435a2.502 2.502 0 01-.996 1.442 2.509 2.509 0 01-.755.383c-.233.072-.545.108-.937.108h-.801zm6.567-3.866l-1 3.866H24.3l1-3.866h.583zm3.608 2.378l-.234-1.314-.94 1.314h1.174zm.096.549H27.93l-.673.939h-.629l2.975-4.109.783 4.109h-.638l-.163-.94zm4.254-2.379l-.857 3.317h-.584l.858-3.317h-.889l.142-.548h2.358l-.141.548h-.887zm4.802 0h-1.55l-.24.93h1.504l-.141.547H36.71l-.334 1.292h1.55l-.142.548h-2.133l1-3.865h2.132l-.141.548zm5.142 1.207h.218c.535 0 .856-.206.963-.618.103-.4-.122-.599-.674-.599h-.193l-.314 1.217zm-.14.54l-.406 1.57h-.583l.999-3.865h.661c.324 0 .563.022.716.067a.7.7 0 01.375.256c.166.217.206.49.12.821a1.444 1.444 0 01-.573.841c-.29.207-.637.31-1.039.31h-.27zm5.175.083l-.233-1.314-.94 1.314h1.173zm.096.549h-1.654l-.674.939h-.628l2.975-4.109.783 4.109h-.639l-.163-.94zm3.421-.731l-.694-2.196h.67l.485 1.545 1.286-1.545h.67L52.92 26.04l-.432 1.67h-.583l.432-1.67zm2.99 1.67l1.888-4.156.55 3.004 2.151-3.004-.343 4.156h-.598l.23-2.334-1.794 2.511-.461-2.514-1.02 2.337h-.603zm9.317-3.318h-1.55l-.24.93h1.504l-.141.547H62.71l-.334 1.292h1.55l-.142.548h-2.133l1-3.865h2.132l-.141.548zm1.17 3.318l1.066-4.129 2.057 2.95.695-2.687h.583l-1.06 4.1-2.059-2.941-.7 2.707h-.583zm7.513-3.318l-.857 3.317h-.584l.858-3.317h-.889l.142-.548h2.358l-.141.548h-.887zm7.69.028l-.545.28c-.05-.153-.107-.254-.175-.3a.49.49 0 00-.303-.08.745.745 0 00-.438.137.588.588 0 00-.249.34c-.049.19.052.341.303.456l.345.158c.28.127.47.282.568.465.098.182.113.406.044.672-.092.355-.286.65-.583.881-.3.234-.626.35-.98.35-.335 0-.586-.099-.754-.297-.164-.199-.226-.478-.186-.839l.625-.13c-.032.227-.026.384.018.47.077.167.231.25.461.25a.782.782 0 00.5-.182.855.855 0 00.3-.463.634.634 0 00.023-.207.4.4 0 00-.053-.172.531.531 0 00-.134-.148 1.183 1.183 0 00-.216-.132l-.333-.155c-.47-.223-.65-.55-.54-.981.075-.29.25-.534.522-.729a1.51 1.51 0 01.905-.295c.445 0 .737.217.875.65m4.205-.027h-1.55l-.24.93h1.505l-.142.547H83.29l-.334 1.292h1.55l-.142.548h-2.133l.999-3.865h2.133l-.142.548zm2.294 1.227h.185c.553 0 .883-.211.993-.634.102-.395-.116-.593-.653-.593h-.208l-.317 1.227zm.611.443l.771 1.648h-.713l-.695-1.583h-.105l-.41 1.583h-.583l1-3.866h.683c.51 0 .855.096 1.032.288.195.213.247.496.157.846a1.45 1.45 0 01-.418.706 1.447 1.447 0 01-.719.378zm3.67-2.218l.377 2.679 1.776-2.68h.639L91.778 28l-.62-4.156h.638zm5.117 0l-1 3.866h-.583l1-3.866h.583zm4.993.208l-.179.69a1.24 1.24 0 00-.937-.422c-.397 0-.769.142-1.115.428a1.955 1.955 0 00-.68 1.041c-.104.406-.056.748.146 1.027.202.278.501.418.898.418.205 0 .389-.033.55-.1.088-.034.183-.079.283-.135.1-.057.21-.126.325-.206l-.182.704a2.529 2.529 0 01-1.124.283c-.553 0-.974-.193-1.265-.579-.289-.389-.362-.858-.22-1.407.127-.492.404-.931.829-1.317.522-.472 1.102-.708 1.738-.708.347 0 .658.094.933.283m4.042.34h-1.55l-.24.93h1.505l-.142.547h-1.504l-.334 1.292h1.55l-.142.548h-2.133l.999-3.865h2.133l-.142.548zM11.515 0L5.822 20.482H1.719L7.412 0h4.103zm29.799 0L35.62 20.482h-4.103l2.706-9.738-10.686 9.738-6.53-10.98-3.05 10.98H9.853L15.547 0l8.659 14.363 11.756-9.87L41.314 0zM97.2 0l-1.11 3.992H75.738l-1.182 4.253h18.258c1.007 0 1.75.918 1.565 1.886l-.03.132-2.276 8.187a2.774 2.774 0 01-2.496 2.026l-.177.006H67.052l1.11-3.992h20.353l1.182-4.253H71.125a1.354 1.354 0 01-1.333-1.593l.029-.123 2.346-8.441A2.84 2.84 0 0174.722.006L74.904 0H97.2zM67.532 0c.937 0 1.628.853 1.46 1.753l-.03.129-2.347 8.444a2.61 2.61 0 01-2.34 1.905l-.175.006H45.82l-2.291 8.245h-4.103l3.401-12.237H63.09l1.183-4.253H44.009L45.12 0h22.413z" fill="#6E6C74"/><path fill="#3F8D45" d="M104.827 0l-5.643 20.482L110 10.24z"/><path fill="#F07939" d="M101.184 0l-5.643 20.482 10.816-10.241z"/></g></svg>