<svg xmlns="http://www.w3.org/2000/svg" width="14" height="12" fill="none"><path fill-rule="evenodd" opacity=".5" d="M13.693 8.496l-3.474 3.217c-.66.612-1.791.178-1.791-.688V.972c0-.537.47-.972 1.05-.972.579 0 1.049.435 1.049.972v7.707l1.682-1.558a1.09 1.09 0 01.742-.285c.58 0 1.049.436 1.049.972a.934.934 0 01-.307.688zM.307 3.504L3.781.287C4.44-.325 5.572.11 5.572.974v10.054c0 .537-.47.972-1.05.972-.579 0-1.048-.435-1.048-.972V3.321L1.79 4.879a1.09 1.09 0 01-.742.285C.47 5.164 0 4.728 0 4.192c0-.269.117-.512.307-.688z" fill="#fff"/></svg>