<svg xmlns="http://www.w3.org/2000/svg" width="89.048" height="26" fill="none"><g fill-rule="evenodd"><path d="M12 15H6V1h18v14h-6v5h-6v-5zm30.636 4.24c-.92.76-2.56.76-2.56.76-1.513 0-2.441-.806-2.441-.806-.929-.806-.929-2.889-.929-2.889V12.52h-1.658v-2.119h1.658v-2.88h2.506v2.88h2.811v2.12h-2.811v3.368c0 .942.324 1.43.324 1.43.324.49 1.045.49 1.045.49.631 0 1.19-.38 1.19-.38l.865 1.81zm5.281-9.074c1.244 0 2.208.552 2.208.552.964.552 1.496 1.557 1.496 1.557.532 1.006.532 2.31.532 2.31 0 .58-.108 1.177-.108 1.177h-6.2c.162 1.05.756 1.585.756 1.585.595.534 1.478.534 1.478.534.631 0 1.127-.28 1.127-.28.495-.281.766-.843.766-.843l1.838 1.087c-.378 1.032-1.45 1.594-1.45 1.594-1.074.561-2.39.561-2.39.561-1.261 0-2.343-.561-2.343-.561-1.081-.562-1.74-1.685-1.74-1.685-.657-1.123-.657-2.698-.657-2.698 0-1.558.658-2.663.658-2.663.658-1.104 1.721-1.666 1.721-1.666 1.063-.561 2.307-.561 2.307-.561zm-.072 2.046c-.739 0-1.262.471-1.262.471-.522.47-.703 1.322-.703 1.322h3.713c-.072-.87-.55-1.331-.55-1.331-.477-.462-1.198-.462-1.198-.462zM60.3 19.24c-.92.761-2.56.761-2.56.761-1.514 0-2.442-.806-2.442-.806-.928-.806-.928-2.889-.928-2.889V12.52h-1.658v-2.119h1.658v-2.88h2.505v2.88h2.812v2.12h-2.812v3.368c0 .942.325 1.43.325 1.43.324.49 1.045.49 1.045.49.63 0 1.19-.38 1.19-.38l.865 1.81zm6.488-9.073a3.467 3.467 0 012.443 1.023c.91 1.023.91 2.98.91 2.98v5.614h-2.506v-4.8c0-2.572-1.694-2.572-1.694-2.572-.901 0-1.45.698-1.45.698-.55.697-.55 1.965-.55 1.965v4.709h-2.506V6h2.505v5.65c.902-1.484 2.848-1.484 2.848-1.484zm9.68 0c1.243 0 2.207.552 2.207.552.965.552 1.496 1.557 1.496 1.557.532 1.006.532 2.31.532 2.31 0 .58-.108 1.177-.108 1.177h-6.2c.162 1.05.757 1.585.757 1.585.594.534 1.477.534 1.477.534.631 0 1.127-.28 1.127-.28.496-.281.766-.843.766-.843l1.838 1.087c-.378 1.032-1.45 1.594-1.45 1.594-1.073.56-2.39.56-2.39.56-1.261 0-2.343-.561-2.343-.561-1.081-.562-1.74-1.685-1.74-1.685-.657-1.123-.657-2.698-.657-2.698 0-1.558.658-2.663.658-2.663.658-1.104 1.721-1.666 1.721-1.666 1.064-.561 2.307-.561 2.307-.561zm-.073 2.046c-.739 0-1.261.471-1.261.471-.523.47-.704 1.322-.704 1.322h3.713c-.072-.87-.55-1.331-.55-1.331-.477-.462-1.198-.462-1.198-.462zm10.923-2.046c.54 0 1.009.163 1.009.163.469.163.721.416.721.416l-.973 1.938c-.469-.326-1.064-.326-1.064-.326-.973 0-1.559.815-1.559.815-.586.815-.586 2.246-.586 2.246v4.365h-2.505V10.4h2.199c.09 1.087.162 1.485.162 1.485a3.455 3.455 0 011.082-1.286c.667-.434 1.514-.434 1.514-.434z" fill="#fff"/><path d="M23.824 0H6.487a1.02 1.02 0 00-.931.585L.149 9.809c-.248.455-.187 1.104.186 1.494l13.857 14.356a1.129 1.129 0 001.616 0l13.857-14.421c.372-.39.434-1.04.186-1.494L24.818.584A1.166 1.166 0 0023.824 0zm-2.237 6.691V4.157H8.475v2.598h4.91v1.82c-3.48.13-6.09.974-6.09 1.884v1.948c0 .91 2.61 1.69 6.09 1.884v4.288h3.293v-4.417c3.479-.13 6.089-.975 6.089-1.884v-1.949c0-.909-2.609-1.69-6.09-1.884V6.691h4.91zm1.056 4.677c-.807.91-3.852 1.56-7.58 1.56-3.729 0-6.836-.65-7.456-1.56.621-.715 2.982-1.363 5.903-1.494v1.884c.497.066 1.056.066 1.615.066.56 0 1.056-.066 1.615-.066V9.874c2.92.13 5.282.715 5.903 1.494z" fill="#00b295"/></g></svg>