<svg xmlns="http://www.w3.org/2000/svg" width="19.002" height="19" fill="none"><g fill-rule="evenodd" fill="#fff"><path d="M12.2 13.714zm.19-3.58c.25.08 1.63.77 1.67.78.18.09.32.16.41.3.12.2.07.76-.11 1.26-.23.65-1.25 1.18-1.71 1.22h-.07c-.11.01-.23.02-.38.02-.36 0-1-.06-2.34-.59-1.39-.56-2.77-1.75-3.87-3.36-.02-.03-.03-.05-.04-.06-.29-.38-.96-1.38-.96-2.44 0-1.17.56-1.84.89-2.05.32-.2 1.02-.29 1.15-.3h.11c.28 0 .47.17.62.52.07.15.65 1.56.68 1.63.04.08.17.32.02.61l-.03.06c-.06.12-.11.22-.22.36-.04.04-.08.08-.12.13-.07.09-.16.19-.23.27-.03.02-.08.07-.08.09 0 0 0 .02.02.06.16.26 1.28 1.81 2.77 2.46.07.03.28.11.29.11.02 0 .04-.02.06-.04.13-.14.55-.63.68-.84.13-.18.28-.28.47-.28.11 0 .22.04.32.08z"/><path d="M9.672 0c5.14 0 9.33 4.15 9.33 9.26 0 5.11-4.19 9.26-9.33 9.26-1.55 0-3.07-.38-4.42-1.1l-4.93 1.57c-.02.01-.05.01-.07.01-.07 0-.13-.03-.18-.07-.06-.07-.09-.17-.06-.26l1.61-4.72a9.182 9.182 0 01-1.28-4.69C.342 4.15 4.522 0 9.672 0zm7.39 9.26c0-4.04-3.32-7.33-7.39-7.33-4.08 0-7.4 3.29-7.4 7.33 0 1.56.49 3.04 1.41 4.3.05.07.06.15.04.23l-.8 2.35 2.47-.79c.02-.01.05-.01.07-.01.05 0 .1.01.14.04 1.21.79 2.62 1.21 4.07 1.21 4.07 0 7.39-3.29 7.39-7.33z"/></g></svg>