<svg xmlns="http://www.w3.org/2000/svg" width="19" height="19" fill="none"><g fill-rule="evenodd"><path d="M9.5 0C4.25 0 0 4.25 0 9.5S4.25 19 9.5 19 19 14.75 19 9.5 14.75 0 9.5 0z" fill="#0f1929"/><path fill="url(#linear_0)" d="M9.5 2C13.64 2 17 5.36 17 9.5c0 4.14-3.36 7.5-7.5 7.5C5.36 17 2 13.64 2 9.5 2 5.36 5.36 2 9.5 2zm4.34 6.52h-3.36V5.16H8.53v3.38H5.17v1.95h3.36v3.36h1.95v-3.37h3.36z"/></g><defs><linearGradient id="linear_0" x1="50%" y1="4.266%" x2="51%" y2="100%" gradientUnits="objectBoundingBox"><stop offset="0" stop-color="#6ECFFF"/><stop offset=".996" stop-color="#4589FF"/></linearGradient></defs></svg>