<?xml version="1.0" encoding="UTF-8"?>
<!DOCTYPE svg PUBLIC "-//W3C//DTD SVG 1.1//EN" "http://www.w3.org/Graphics/SVG/1.1/DTD/svg11.dtd">
<svg xmlns="http://www.w3.org/2000/svg" version="1.1" width="512px" height="512px" style="shape-rendering:geometricPrecision; text-rendering:geometricPrecision; image-rendering:optimizeQuality; fill-rule:evenodd; clip-rule:evenodd" xmlns:xlink="http://www.w3.org/1999/xlink">
<g><path style="opacity:0.992" fill="#010000" d="M 220.5,-0.5 C 247.167,-0.5 273.833,-0.5 300.5,-0.5C 302.134,0.971672 303.634,2.63834 305,4.5C 305.499,9.48892 305.666,14.4889 305.5,19.5C 327.169,19.3334 348.836,19.5 370.5,20C 372.333,21.1667 373.833,22.6667 375,24.5C 375.499,29.4889 375.666,34.4889 375.5,39.5C 397.169,39.3334 418.836,39.5 440.5,40C 442.333,41.1667 443.833,42.6667 445,44.5C 445.667,133.167 445.667,221.833 445,310.5C 439.916,336.745 425.749,356.412 402.5,369.5C 406.339,374.179 408.839,379.512 410,385.5C 410.667,417.167 410.667,448.833 410,480.5C 405.651,496.681 395.484,507.015 379.5,511.5C 316.833,511.5 254.167,511.5 191.5,511.5C 172.719,506.223 162.553,493.89 161,474.5C 162.345,469.651 165.511,467.318 170.5,467.5C 172.564,467.687 174.564,468.187 176.5,469C 179.993,473.799 182.826,478.966 185,484.5C 187.99,487.491 191.49,489.657 195.5,491C 219.532,491.928 243.532,491.594 267.5,490C 295.542,481.098 310.542,461.932 312.5,432.5C 310.243,403.474 295.243,384.641 267.5,376C 243.532,374.406 219.532,374.072 195.5,375C 191.49,376.343 187.99,378.509 185,381.5C 182.589,386.247 180.089,390.914 177.5,395.5C 175.115,396.661 172.781,397.661 170.5,398.5C 161.832,395.83 158.998,390.163 162,381.5C 162.765,378.804 163.932,376.304 165.5,374C 145.625,369.313 129.125,359.146 116,343.5C 93.2017,316.644 79.3684,285.644 74.5,250.5C 70.4498,211.9 67.6165,173.233 66,134.5C 67.1667,132.667 68.6667,131.167 70.5,130C 88.6274,122.46 106.961,115.626 125.5,109.5C 128.131,109.321 130.465,109.987 132.5,111.5C 136.858,116.69 141.024,122.023 145,127.5C 145.333,99.8333 145.667,72.1667 146,44.5C 147.167,42.6667 148.667,41.1667 150.5,40C 172.164,39.5 193.831,39.3334 215.5,39.5C 215.333,27.8286 215.5,16.1619 216,4.5C 217.366,2.63834 218.866,0.971672 220.5,-0.5 Z"/></g>
<g><path style="opacity:1" fill="#fe7a78" d="M 235.5,19.5 C 252.167,19.5 268.833,19.5 285.5,19.5C 285.333,36.8365 285.5,54.1699 286,71.5C 288.851,79.1684 294.018,81.1684 301.5,77.5C 302.333,76.5 303.167,75.5 304,74.5C 305.436,62.9097 305.936,51.243 305.5,39.5C 322.167,39.5 338.833,39.5 355.5,39.5C 355.333,56.8365 355.5,74.1699 356,91.5C 358.851,99.1684 364.018,101.168 371.5,97.5C 372.333,96.5 373.167,95.5 374,94.5C 375.436,82.9097 375.936,71.243 375.5,59.5C 392.167,59.5 408.833,59.5 425.5,59.5C 425.667,102.501 425.5,145.501 425,188.5C 420.5,213 406,227.5 381.5,232C 324.167,232.667 266.833,232.667 209.5,232C 185,227.5 170.5,213 166,188.5C 165.5,145.501 165.333,102.501 165.5,59.5C 182.167,59.5 198.833,59.5 215.5,59.5C 215.333,70.1719 215.5,80.8385 216,91.5C 218.851,99.1684 224.018,101.168 231.5,97.5C 232.333,96.5 233.167,95.5 234,94.5C 235.472,69.5649 235.972,44.5649 235.5,19.5 Z"/></g>
<g><path style="opacity:1" fill="#040201" d="M 191.5,119.5 C 198.841,119.334 206.174,119.5 213.5,120C 221.674,123.212 223.508,128.712 219,136.5C 217.352,137.717 215.519,138.55 213.5,139C 206.5,139.667 199.5,139.667 192.5,139C 185.53,135.081 184.03,129.581 188,122.5C 189.518,121.837 190.685,120.837 191.5,119.5 Z"/></g>
<g><path style="opacity:1" fill="#040201" d="M 252.5,119.5 C 259.841,119.334 267.174,119.5 274.5,120C 282.674,123.212 284.508,128.712 280,136.5C 278.352,137.717 276.519,138.55 274.5,139C 267.5,139.667 260.5,139.667 253.5,139C 246.53,135.081 245.03,129.581 249,122.5C 250.518,121.837 251.685,120.837 252.5,119.5 Z"/></g>
<g><path style="opacity:1" fill="#040201" d="M 313.5,119.5 C 321.174,119.334 328.841,119.5 336.5,120C 344.674,123.212 346.508,128.712 342,136.5C 340.352,137.717 338.519,138.55 336.5,139C 329.167,139.667 321.833,139.667 314.5,139C 307.53,135.081 306.03,129.581 310,122.5C 311.518,121.837 312.685,120.837 313.5,119.5 Z"/></g>
<g><path style="opacity:1" fill="#040201" d="M 375.5,119.5 C 382.841,119.334 390.174,119.5 397.5,120C 405.674,123.212 407.508,128.712 403,136.5C 401.352,137.717 399.519,138.55 397.5,139C 390.5,139.667 383.5,139.667 376.5,139C 369.53,135.081 368.03,129.581 372,122.5C 373.518,121.837 374.685,120.837 375.5,119.5 Z"/></g>
<g><path style="opacity:1" fill="#fd7a78" d="M 120.5,131.5 C 121.496,131.414 122.329,131.748 123,132.5C 130.333,142.5 137.667,152.5 145,162.5C 142.141,186.559 147.808,208.226 162,227.5C 167.188,233.168 173.021,238.002 179.5,242C 161.244,253.608 150.077,270.108 146,291.5C 145.667,308.5 145.333,325.5 145,342.5C 114.754,315.341 97.754,281.341 94,240.5C 91.5276,210.664 89.0276,180.831 86.5,151C 86.8333,149.167 87.1667,147.333 87.5,145.5C 98.7049,141.057 109.705,136.39 120.5,131.5 Z"/></g>
<g><path style="opacity:1" fill="#f67674" d="M 424.5,231.5 C 425.653,237.653 425.82,243.986 425,250.5C 421.31,247.309 417.477,244.309 413.5,241.5C 417.187,238.145 420.853,234.811 424.5,231.5 Z"/></g>
<g><path style="opacity:1" fill="#fe7a78" d="M 204.5,252.5 C 266.545,252.015 328.545,252.515 390.5,254C 418.519,263.19 429.685,282.356 424,311.5C 418.164,332.003 405.33,346.17 385.5,354C 312.464,354.984 239.464,354.651 166.5,353C 165.341,333.24 165.174,313.407 166,293.5C 170.832,272.172 183.666,258.505 204.5,252.5 Z"/></g>
<g><path style="opacity:1" fill="#fd9db0" d="M 170.5,467.5 C 170.5,459.5 170.5,451.5 170.5,443.5C 178.852,441.129 181.686,435.796 179,427.5C 176.971,424.404 174.138,422.738 170.5,422.5C 170.5,414.5 170.5,406.5 170.5,398.5C 172.781,397.661 175.115,396.661 177.5,395.5C 180.089,390.914 182.589,386.247 185,381.5C 187.99,378.509 191.49,376.343 195.5,375C 219.532,374.072 243.532,374.406 267.5,376C 295.243,384.641 310.243,403.474 312.5,432.5C 310.542,461.932 295.542,481.098 267.5,490C 243.532,491.594 219.532,491.928 195.5,491C 191.49,489.657 187.99,487.491 185,484.5C 182.826,478.966 179.993,473.799 176.5,469C 174.564,468.187 172.564,467.687 170.5,467.5 Z"/></g>
<g><path style="opacity:1" fill="#f99aad" d="M 306.5,375.5 C 329.33,374.337 352.33,374.17 375.5,375C 388.191,380.207 393.191,389.707 390.5,403.5C 369.164,403.667 347.831,403.5 326.5,403C 321.647,392.437 314.98,383.27 306.5,375.5 Z"/></g>
<g><path style="opacity:0.943" fill="#040202" d="M 170.5,422.5 C 174.138,422.738 176.971,424.404 179,427.5C 181.686,435.796 178.852,441.129 170.5,443.5C 161.49,441.832 158.324,436.498 161,427.5C 163.285,424.108 166.452,422.441 170.5,422.5 Z"/></g>
<g><path style="opacity:1" fill="#080405" d="M 277.5,423.5 C 285.829,421.655 290.829,424.821 292.5,433C 290.828,441.342 285.828,444.342 277.5,442C 270.88,435.835 270.88,429.669 277.5,423.5 Z"/></g>
<g><path style="opacity:1" fill="#fe7b78" d="M 390.5,423.5 C 390.5,429.833 390.5,436.167 390.5,442.5C 371.167,442.5 351.833,442.5 332.5,442.5C 332.5,436.167 332.5,429.833 332.5,423.5C 351.833,423.5 371.167,423.5 390.5,423.5 Z"/></g>
<g><path style="opacity:1" fill="#823f3e" d="M 390.5,423.5 C 371.167,423.5 351.833,423.5 332.5,423.5C 332.5,429.833 332.5,436.167 332.5,442.5C 351.833,442.5 371.167,442.5 390.5,442.5C 371.007,443.497 351.34,443.83 331.5,443.5C 331.5,436.5 331.5,429.5 331.5,422.5C 351.34,422.17 371.007,422.503 390.5,423.5 Z"/></g>
<g><path style="opacity:1" fill="#fd9db0" d="M 325.5,463.5 C 347.167,463.5 368.833,463.5 390.5,463.5C 392.7,476.82 387.7,485.987 375.5,491C 352.5,491.667 329.5,491.667 306.5,491C 314.951,483.255 321.284,474.089 325.5,463.5 Z"/></g>
</svg>
