<svg xmlns="http://www.w3.org/2000/svg" width="19.67" height="22.202" fill="none"><path fill-rule="evenodd" d="M19.39 5.442c.16.06.28.29.28.45v1.64c0 .17-.12.28-.28.28H.28c-.17 0-.28-.11-.28-.28v-1.64c0-.16.11-.39.28-.45L9.55.082c.17-.11.4-.11.56 0zm-7.93-.79a1.63 1.63 0 00-3.26 0c0 .91.73 1.64 1.63 1.64.9 0 1.63-.73 1.63-1.64zm-8.93 12.75c0-.11.11-.28.28-.28v-6.77c-.17 0-.28-.11-.28-.28v-.57c0-.16.11-.28.28-.28h2.81c.17 0 .28.12.28.28v.57c0 .17-.11.28-.28.28v6.77c.17 0 .28.11.28.28v.57c0 .16-.11.28-.28.28H2.81c-.17 0-.28-.12-.28-.28zm11.24 0c0-.11.11-.22.22-.28v-6.77c-.11-.06-.22-.17-.22-.28v-.57c0-.16.11-.28.28-.28h2.81c.17 0 .28.12.28.28v.57c0 .17-.11.28-.28.28v6.77c.17 0 .28.11.28.28v.57c0 .16-.11.28-.28.28h-2.81c-.17 0-.28-.12-.28-.28zm-2.8-5.927c.05.1.09.2.1.3l.02.14h1.42l-.41.89h-1l-.02.14c-.05.24-.13.47-.26.66-.12.2-.28.38-.48.53-.19.15-.41.27-.66.36-.25.09-.51.15-.78.17l-.34.03 2.98 3.16h-1.51l-2.68-2.99v-1H8c.11 0 .25 0 .41-.02.17-.02.34-.05.51-.11.17-.05.33-.13.47-.24.16-.11.27-.27.33-.47l.06-.21H7.16l.4-.9h2.22l-.06-.21a.788.788 0 00-.3-.43c-.14-.1-.3-.17-.48-.22-.18-.05-.38-.07-.59-.09-.21-.01-.42-.01-.64-.01h-.55l.4-.9h4.94l-.4.9h-1.52l.23.27c.05.07.11.15.16.25zm8.14 8.187c.33 0 .56.28.56.56v1.69c0 .17-.12.29-.28.29H.28c-.17 0-.28-.12-.28-.29v-1.69c0-.34.22-.56.56-.56z" fill="#fff"/></svg>