<svg xmlns="http://www.w3.org/2000/svg" width="30" height="26" fill="none"><path d="M3.295 9.875s1.44-4.892 5.988-7.017l-.82 4.927L13.073 0l1.301 5.246L17.601.194l.536 2.976 4.11-.955-5.098 3.19-.104-2.464-1.335 3.426-2.942 1.806-.174-6.048-2.476 7.744-7.609 4.788 4.187-7.854-3.401 3.072zm1.69 12.07l5.557-1.772-.104 1.488 2.156-2.533 2.052 1.066 1.585-1.841 3.777-1.17.445 5.814 1.481-6.45 5.272-1.647s-.104 4.394-3.651 7.536l.41-4.166-3.686 7.356-2.19-6.041-3.423 2.498-1.905-1.82-3.596 4.581-.18-2.927-4 .028z" fill="#F08"/><path d="M5.347 13.827l.535 1.564a.494.494 0 01-.243.595c-1.197.595-4.806 2.388-5.3 2.61-.591.262-.23 1.169-.23 1.169l.16.353c.25.636.835.477.835.477L6.32 18.34a.495.495 0 01.661.284l.55 1.53 2.086-.797-2.406-6.609-1.864 1.08zm7.838 1.647l3.846-3.35s.39-.339.056-1.01c-.341-.671-.786-1.827-2.518-1.965 0 0-.939-.07-1.885.443a73.206 73.206 0 00-2.406 1.398s-2.636 1.557-1.46 4.18l2.065-.976v-.492s-.104-.443.535-.747c.64-.305 2.157-1.08 2.157-1.08s.57-.18.8 0l-4.292 4.007s-.73.637-.23 2.146l.41 1.114 8.924-3.246-1.14-2.554-4.862 2.132zM29.96 9.82c-.25-2.249-2.086-5.142-3.421-6.277 0 0-1.266-1.135-2.26-.602-.995.533-6.469 3.703-6.469 3.703s-.793.325-.73 1.238c0 0-.07 1.883 1.085 4.097 1.154 2.215 2.156 2.907 2.156 2.907s.514.408 1.245.18c.73-.229 7.623-2.768 7.623-2.768s1.022-.229.771-2.478zm-3.97.104l-4.167 1.806c-.375.16-.591-.09-.591-.09-.995-.886-1.217-2.505-1.217-2.505a.676.676 0 01.299-.692l3.93-1.93c.855-.354 1.64 1.432 1.64 1.432.766 1.75.105 1.979.105 1.979zM12.35 25.945h-.716V22.99h.716v2.955zm2.727-.789l.306.574s-.348.27-1.036.27c-.89 0-1.704-.678-1.704-1.53 0-.85.813-1.536 1.704-1.536.681 0 1.036.27 1.036.27l-.306.575s-.25-.18-.62-.18c-.723 0-1.036.47-1.036.865 0 .394.32.872 1.037.872.368 0 .619-.18.619-.18zm2.97 0l.306.574s-.348.27-1.037.27c-.89 0-1.704-.678-1.704-1.53 0-.85.814-1.536 1.704-1.536.682 0 1.037.27 1.037.27l-.306.575s-.25-.18-.62-.18c-.723 0-1.036.47-1.036.865 0 .394.32.872 1.037.872.368 0 .619-.18.619-.18z" fill="#FFF"/></svg>