<svg xmlns="http://www.w3.org/2000/svg" width="68" height="68" fill="none"><g fill-rule="evenodd"><path fill="url(#linear_0)" d="M68 34C68 15.23 52.77 0 34 0S0 15.23 0 34s15.23 34 34 34 34-15.23 34-34z"/><path d="M45.006 23c-.9 0-1.71.4-2.26 1.02l-12.41 13.3-5.15-5.51c-.54-.58-1.32-.95-2.19-.95-1.66 0-3 1.34-3 3 0 .8.31 1.52.82 2.06l7.33 7.85a2.994 2.994 0 004.38 0l14.67-15.72c.5-.54.81-1.26.81-2.05 0-1.66-1.34-3-3-3z" fill="#fff"/></g><defs><linearGradient id="linear_0" x1="50%" y1="4.266%" x2="51%" y2="100%" gradientUnits="objectBoundingBox"><stop offset="0" stop-color="#5CF298"/><stop offset="1" stop-color="#00B58B"/></linearGradient></defs></svg>