<svg xmlns="http://www.w3.org/2000/svg" width="20" height="20" fill="none"><path fill-rule="evenodd" d="M18.75 3.75c.69 0 1.25.56 1.25 1.25v3.38c0 .69-.56 1.25-1.25 1.25v7.87a2.5 2.5 0 01-2.5 2.5H3.75a2.5 2.5 0 01-2.5-2.5V9.63C.56 9.63 0 9.07 0 8.38V5c0-.69.56-1.25 1.25-1.25h3.37L2.01 2.18C1.22 1.7 1.94.55 2.69 1l2.95 1.78C5.46 1.31 6.64 0 8.12 0c.76 0 1.42.34 1.88.86.46-.52 1.12-.86 1.88-.86 1.38 0 2.49 1.12 2.49 2.5 0 0 0 .19-.01.28L17.31 1c.75-.45 1.47.7.68 1.18l-2.61 1.57zM8.125 1.25a1.25 1.25 0 100 2.5 1.25 1.25 0 000-2.5zm3.75 0a1.25 1.25 0 100 2.5 1.25 1.25 0 000-2.5zM7.27 8.375v-3.38h-5.4l-.054-.001c-.19-.01-.566-.027-.566.551v2.21c0 .34.28.62.62.62zm11.48-2.753c0-.661-.334-.638-.55-.624-.029.002-.056.004-.08.004h-5.39v3.37h5.39c.35 0 .63-.28.63-.62zM8.622 5v13.75h2.76L11.372 5zM2.5 9.626v7.87c0 .69.56 1.25 1.25 1.25h3.52v-9.12zm10.226 9.12h3.52c.69 0 1.25-.56 1.25-1.25v-7.87h-4.77z" fill="#fff"/></svg>