<svg xmlns="http://www.w3.org/2000/svg" width="19.74" height="19.38" fill="none"><path fill-rule="evenodd" fill="url(#linear_0)" d="M.59 18.8zM17.95 1.11l.66.64c.73.7 1.13 1.6 1.13 2.63 0 1.02-.4 1.92-1.13 2.62l-8.64 8.4c-.73.71-1.65 1.09-2.71 1.09-.4 0-.79-.06-1.19-.19L3.5 18.8c-.4.38-.93.58-1.45.58-.53 0-1.06-.2-1.46-.58a1.976 1.976 0 010-2.82l2.51-2.44c-.2-.45-.26-.9-.26-1.41 0-1.02.39-1.92 1.12-2.63l8.38-8.2.14-.13.06-.06a3.851 3.851 0 015.41 0zM10.96 4.5v8.14l1.65-1.6V2.9zM4.88 15.66l-1.05-1.03-2.31 2.25a.71.71 0 00-.2.51c0 .19.07.38.2.51.26.26.79.26 1.05 0zm4.16-1.16l.6-.57V5.79L4.88 10.4c-.46.45-.72 1.09-.72 1.73 0 .64.26 1.28.72 1.73l.66.64c.93.9 2.58.9 3.5 0zm9.44-10.12c0-.65-.26-1.29-.72-1.74L17.1 2c-.53-.45-1.13-.7-1.79-.7-.52 0-.99.13-1.45.38v8.14l3.83-3.71c.46-.52.73-1.09.79-1.73z"/><path fill-rule="evenodd" fill="url(#linear_1)" d="M.59 18.8zM17.95 1.11l.66.64c.73.7 1.13 1.6 1.13 2.63 0 1.02-.4 1.92-1.13 2.62l-8.64 8.4c-.73.71-1.65 1.09-2.71 1.09-.4 0-.79-.06-1.19-.19L3.5 18.8c-.4.38-.93.58-1.45.58-.53 0-1.06-.2-1.46-.58a1.976 1.976 0 010-2.82l2.51-2.44c-.2-.45-.26-.9-.26-1.41 0-1.02.39-1.92 1.12-2.63l8.38-8.2.14-.13.06-.06a3.851 3.851 0 015.41 0zM10.96 4.5v8.14l1.65-1.6V2.9zM4.88 15.66l-1.05-1.03-2.31 2.25a.71.71 0 00-.2.51c0 .19.07.38.2.51.26.26.79.26 1.05 0zm4.16-1.16l.6-.57V5.79L4.88 10.4c-.46.45-.72 1.09-.72 1.73 0 .64.26 1.28.72 1.73l.66.64c.93.9 2.58.9 3.5 0zm9.44-10.12c0-.65-.26-1.29-.72-1.74L17.1 2c-.53-.45-1.13-.7-1.79-.7-.52 0-.99.13-1.45.38v8.14l3.83-3.71c.46-.52.73-1.09.79-1.73z"/><defs><linearGradient id="linear_0" x1="50%" y1="122.891%" x2="51%" y2="50%" gradientUnits="objectBoundingBox"><stop offset="0" stop-color="#FFF"/><stop offset="1" stop-color="#FFF"/></linearGradient><linearGradient id="linear_1" x1="48.87%" y1="100%" x2="49.87%" y2="0%" gradientUnits="objectBoundingBox"><stop offset="0" stop-color="#FFF"/><stop offset="1" stop-color="#FFF"/></linearGradient></defs></svg>