<svg xmlns="http://www.w3.org/2000/svg" width="20.001" height="20" fill="none"><path fill-rule="evenodd" fill="url(#linear_0)" d="M4.41 19.93c-.41 0-.68-.27-.75-.67 0-.41.28-.75.68-.75h10.79c.82 0 1.5-.6 1.57-1.42V9.53c0-.41.33-.75.74-.75.34 0 .68.27.75.68v7.5c0 1.62-1.29 2.9-2.85 3.04H4.41zm3.39-3.71zm4.55 0c-.34 0-.68-.27-.74-.68v-.13l-.07-1.94c0-.88-.68-1.55-1.56-1.55-.82 0-1.5.61-1.56 1.42v.13l.06 2c0 .41-.27.68-.68.75-.4 0-.74-.27-.74-.61v-.14l-.07-1.93c0-1.69 1.36-3.04 3.05-3.04 1.63 0 2.92 1.28 3.06 2.84v.2l.07 1.93c-.07.41-.41.75-.82.75zm-9.77 0c-.41 0-.75-.34-.75-.75V9.46c0-.41.34-.74.75-.74s.75.33.75.74v6.01c0 .41-.34.75-.75.75zM.75 7.43c-.14 0-.21 0-.34-.07C.2 7.3 0 7.03 0 6.76c0-.27.14-.54.34-.68L9.64.07c.07 0 .2-.07.4-.07.14 0 .28.07.41.14l9.23 6.01c.34.2.41.67.21 1.01-.14.2-.34.34-.62.34-.13 0-.27-.07-.4-.14l-8.83-5.74-8.89 5.74c-.13.07-.27.07-.4.07z"/><defs><linearGradient id="linear_0" x1="48.87%" y1="100%" x2="49.87%" y2="0%" gradientUnits="objectBoundingBox"><stop offset="0" stop-color="#FFF"/><stop offset="1" stop-color="#FFF"/></linearGradient></defs></svg>