<svg xmlns="http://www.w3.org/2000/svg" width="46" height="17" fill="none"><g fill-rule="evenodd"><path d="M8.17 4.327L7 10.717s-.2 1.32-1.45 1.32H1.3L0 14.667h6.09s3.33.03 4-3.33c.67-3.36 1.72-9.47 1.72-9.47H6.18l-1.17 2.46h3.16zm2.68 7.376s-.45 2.99 2.02 2.99h7.47l-1.43-2.63h-4.3s-.67.11-.6-.62c.06-.72.91-4.9.91-4.9s.14-.48.65-.48h3.13s.36.07.34.44c-.04.35-.18 1.38-.18 1.38h-3.91l-.45 2.4h6.78l.71-4.66s.45-2.06-2.37-2.06h-4.38s-2.87-.27-3.43 2.83l-.96 5.31zm19.355.399h-4.23c-.58 0-.4-.48-.4-.48l1.05-5.52h4.97l-1.28-2.59h-3.09l.47-2.48h-3.46s-1.32 7.07-1.93 10.41c-.6 3.34 1.97 3.25 1.97 3.25h3.76l2.17-2.59z" fill="#fff"/><path d="M41.93 0l-3.22 3.69h1.21l-1.5.35-1.32 1.52-.92-1.74 1.59-.35h-1.79l-.7-1.32H31.3l.78 1.54h1.24l-1.1.26 2.33 4.53-1.23 1.43h.67l-.85.19-3.56 4.11h.74l-.94.22L27.14 17h4.36l1.97-2.31 1.08-.24h-.88l2.46-2.88 1.75 3.34h4.18l-.31-.59.49-.11h-.53l-2.26-4.24.62-.15h-.71l-.68-1.25 3.96-4.62 1.48-.35h-1.18L46 0h-4.07z" fill="#ffeb3b"/></g></svg>